<?xml version="1.0" encoding="UTF-8" standalone="no"?>
<!DOCTYPE svg PUBLIC "-//W3C//DTD SVG 1.1//EN" "http://www.w3.org/Graphics/SVG/1.1/DTD/svg11.dtd">
<svg width="100%" height="100%" viewBox="0 0 1600 1600" version="1.1" xmlns="http://www.w3.org/2000/svg" xmlns:xlink="http://www.w3.org/1999/xlink" xml:space="preserve" xmlns:serif="http://www.serif.com/" style="fill-rule:evenodd;clip-rule:evenodd;stroke-linejoin:round;stroke-miterlimit:2;">
    <g id="Layer1" transform="matrix(3.49762,0,0,3.49762,-822.89,-1154.93)">
        <path d="M645.593,652.383C612.328,713.749 547.345,755.458 472.697,755.458C364.232,755.458 276.172,667.398 276.172,558.933C276.172,450.468 364.232,362.408 472.697,362.408C552.33,362.408 620.964,409.874 651.826,478.033L575.207,483.797C553.648,460.865 506.625,440.77 472.697,440.77C407.481,440.77 354.535,493.717 354.535,558.933C354.535,624.149 407.481,677.095 472.697,677.095C499.916,677.095 549.589,659.545 569.576,644.056L645.593,652.383Z" style="fill:rgb(28,67,121);"/>
    </g>
    <g id="Layer2" transform="matrix(3.76559,0,0,3.76559,-1418.6,-1252.74)">
        <g>
            <g transform="matrix(-0.343266,0.301937,-0.979382,-1.11344,1302.96,958.29)">
                <path d="M606.406,514.971L753.583,526.908C757.378,526.908 641.015,536.416 606.537,539.227C608.855,538.66 611.041,538.022 613.063,537.314C631.324,530.913 629.294,521.147 608.535,515.518C607.837,515.328 607.127,515.146 606.406,514.971Z" style="fill:rgb(28,67,121);"/>
            </g>
            <g transform="matrix(0.810849,2.37665e-17,1.08213e-15,1.48288,117.417,-236.504)">
                <path d="M597.441,514.244L753.583,526.908C757.907,526.908 606.271,539.249 597.442,539.967C605.042,537.198 610.054,532.47 610.054,527.106C610.054,521.742 605.042,517.013 597.441,514.244Z" style="fill:rgb(28,67,121);"/>
            </g>
        </g>
        <g transform="matrix(1.08082,0,0,1.08082,-40.7382,-64.8777)">
            <circle cx="582.811" cy="564.394" r="15.379" style="fill:rgb(28,67,121);"/>
        </g>
    </g>
</svg>
